<svg width="132" height="143" viewBox="0 0 132 143" fill="none" xmlns="http://www.w3.org/2000/svg">
<g id="ic:round-add-chart">
<path id="Vector" d="M88 101.292C91.025 101.292 93.5 98.6103 93.5 95.3333V83.4166C93.5 80.1395 91.025 77.4583 88 77.4583C84.975 77.4583 82.5 80.1395 82.5 83.4166V95.3333C82.5 98.6103 84.975 101.292 88 101.292Z" fill="white"/>
<path id="Vector_2" d="M110 59.5833C106.975 59.5833 104.5 62.2646 104.5 65.5417V113.208H27.5V29.7917H71.5C74.525 29.7917 77 27.1104 77 23.8333C77 20.5563 74.525 17.875 71.5 17.875H27.5C21.45 17.875 16.5 23.2375 16.5 29.7917V113.208C16.5 119.763 21.45 125.125 27.5 125.125H104.5C110.55 125.125 115.5 119.763 115.5 113.208V65.5417C115.5 62.2646 113.025 59.5833 110 59.5833Z" fill="white"/>
<path id="Vector_3" d="M38.5 65.5417V95.3333C38.5 98.6104 40.975 101.292 44 101.292C47.025 101.292 49.5 98.6104 49.5 95.3333V65.5417C49.5 62.2646 47.025 59.5833 44 59.5833C40.975 59.5833 38.5 62.2646 38.5 65.5417ZM60.5 47.6667V95.3333C60.5 98.6104 62.975 101.292 66 101.292C69.025 101.292 71.5 98.6104 71.5 95.3333V47.6667C71.5 44.3896 69.025 41.7083 66 41.7083C62.975 41.7083 60.5 44.3896 60.5 47.6667ZM88 41.7083H93.5V47.6667C93.5 50.9437 95.975 53.625 99 53.625C102.025 53.625 104.5 50.9437 104.5 47.6667V41.7083H110C113.025 41.7083 115.5 39.0271 115.5 35.75C115.5 32.4729 113.025 29.7917 110 29.7917H104.5V23.8333C104.5 20.5562 102.025 17.875 99 17.875C95.975 17.875 93.5 20.5562 93.5 23.8333V29.7917H88C84.975 29.7917 82.5 32.4729 82.5 35.75C82.5 39.0271 84.975 41.7083 88 41.7083Z" fill="white"/>
</g>
</svg>
