<svg width="24" height="24" viewBox="0 0 24 24" fill="none" xmlns="http://www.w3.org/2000/svg">
<g id="solar:layers-bold-duotone">
<path id="Vector" d="M4.979 9.685C2.993 8.891 2 8.494 2 8C2 7.506 2.993 7.11 4.979 6.315L7.787 5.192C9.773 4.397 10.767 4 12 4C13.234 4 14.227 4.397 16.213 5.192L19.021 6.315C21.007 7.109 22 7.506 22 8C22 8.494 21.007 8.89 19.021 9.685L16.213 10.809C14.227 11.603 13.233 12 12 12C10.766 12 9.773 11.603 7.787 10.809L4.979 9.685Z" fill="white"/>
<path id="Vector_2" fill-rule="evenodd" clip-rule="evenodd" d="M2 8C2 8.494 2.993 8.89 4.979 9.685L7.787 10.809C9.773 11.603 10.767 12 12 12C13.234 12 14.227 11.603 16.213 10.809L19.021 9.685C21.007 8.891 22 8.494 22 8C22 7.506 21.007 7.11 19.021 6.315L16.213 5.192C14.227 4.397 13.233 4 12 4C10.766 4 9.773 4.397 7.787 5.192L4.98 6.315C2.993 7.109 2 7.506 2 8Z" fill="white"/>
<path id="Vector_3" opacity="0.7" d="M5.766 10L4.979 10.315C2.993 11.109 2 11.507 2 12C2 12.493 2.993 12.89 4.979 13.685L7.787 14.809C9.773 15.603 10.767 16 12 16C13.234 16 14.227 15.603 16.213 14.809L19.021 13.685C21.007 12.891 22 12.493 22 12C22 11.507 21.007 11.11 19.021 10.315L18.234 10L16.213 10.809C14.227 11.603 13.233 12 12 12C10.766 12 9.773 11.603 7.787 10.809L5.767 10H5.766Z" fill="white"/>
<path id="Vector_4" opacity="0.4" d="M5.766 14L4.979 14.315C2.993 15.109 2 15.507 2 16C2 16.494 2.993 16.89 4.979 17.685L7.787 18.809C9.773 19.603 10.767 20 12 20C13.234 20 14.227 19.603 16.213 18.808L19.021 17.685C21.007 16.891 22 16.494 22 16C22 15.507 21.007 15.11 19.021 14.315L18.234 14L16.213 14.809C14.227 15.603 13.233 16 12 16C10.766 16 9.773 15.603 7.787 14.809L5.767 14H5.766Z" fill="white"/>
</g>
</svg>
