<svg width="30" height="30" viewBox="0 0 30 30" fill="none" xmlns="http://www.w3.org/2000/svg">
<g id="Edit-logo">
<path id="Vector" d="M24.375 15C24.375 14.7514 24.4738 14.5129 24.6496 14.3371C24.8254 14.1613 25.0639 14.0625 25.3125 14.0625C25.5611 14.0625 25.7996 14.1613 25.9754 14.3371C26.1512 14.5129 26.25 14.7514 26.25 15V25.3125C26.25 25.5611 26.1512 25.7996 25.9754 25.9754C25.7996 26.1512 25.5611 26.25 25.3125 26.25H4.6875C4.43886 26.25 4.2004 26.1512 4.02459 25.9754C3.84877 25.7996 3.75 25.5611 3.75 25.3125V4.6875C3.75 4.43886 3.84877 4.2004 4.02459 4.02459C4.2004 3.84877 4.43886 3.75 4.6875 3.75H15C15.2486 3.75 15.4871 3.84877 15.6629 4.02459C15.8387 4.2004 15.9375 4.43886 15.9375 4.6875C15.9375 4.93614 15.8387 5.1746 15.6629 5.35041C15.4871 5.52623 15.2486 5.625 15 5.625H5.625V24.375H24.375V15Z" fill="#1F78B4"/>
<path id="Vector_2" d="M13.7681 16.2376L15.315 16.0164L24.8175 6.51573C24.907 6.42925 24.9784 6.3258 25.0276 6.21142C25.0767 6.09704 25.1026 5.97402 25.1036 5.84954C25.1047 5.72506 25.081 5.60161 25.0339 5.4864C24.9867 5.37118 24.9171 5.26651 24.8291 5.17848C24.7411 5.09046 24.6364 5.02085 24.5212 4.97371C24.406 4.92657 24.2825 4.90285 24.158 4.90393C24.0336 4.90501 23.9105 4.93087 23.7962 4.98001C23.6818 5.02914 23.5783 5.10056 23.4918 5.1901L13.9875 14.6907L13.7662 16.2376H13.7681ZM26.1431 3.8626C26.4045 4.12379 26.6118 4.43392 26.7532 4.77526C26.8947 5.11661 26.9675 5.48248 26.9675 5.85198C26.9675 6.22147 26.8947 6.58735 26.7532 6.92869C26.6118 7.27004 26.4045 7.58016 26.1431 7.84135L16.4212 17.5632C16.2779 17.7071 16.0916 17.8006 15.8906 17.8295L12.7968 18.272C12.6527 18.2927 12.5056 18.2795 12.3674 18.2335C12.2292 18.1875 12.1037 18.1099 12.0007 18.0069C11.8977 17.9039 11.8201 17.7783 11.7741 17.6401C11.7281 17.5019 11.7149 17.3549 11.7356 17.2107L12.1781 14.117C12.2065 13.9162 12.2993 13.73 12.4425 13.5864L22.1662 3.86448C22.6936 3.33722 23.4089 3.04102 24.1547 3.04102C24.9004 3.04102 25.6157 3.33722 26.1431 3.86448V3.8626Z" fill="#1F78B4"/>
</g>
</svg>
