<svg width="1440" height="1024" viewBox="0 0 1440 1024" fill="none" xmlns="http://www.w3.org/2000/svg">
<path d="M438.526 737C438.526 936.927 268.5 1099 58.7631 1099C-150.974 1099 -321 936.927 -321 737C-321 537.073 -150.974 375 58.7631 375C268.5 375 438.526 537.073 438.526 737Z" fill="#31353F"/>
<ellipse cx="58.7631" cy="737" rx="300.034" ry="286" fill="#1B1B1B"/>
<ellipse cx="58.7462" cy="737" rx="229.746" ry="219" fill="#31353F"/>
<path d="M835.146 191.444C677.91 209.77 570.959 65.4505 537.139 -9L1539 -3.98891V1024H1427.1C1080.63 969.594 1138.95 752.685 1211.42 651.032C1253.75 579.684 1330.28 407.779 1297.81 290.949C1257.23 144.912 1031.69 168.536 835.146 191.444Z" fill="#31353F"/>
</svg>
