
<svg xmlns="http://www.w3.org/2000/svg" width="30" height="30" viewBox="0 0 30 30" fill="none">
  <path d="M20 7.5C20 5.1425 20 3.965 19.2675 3.2325C18.535 2.5 17.3575 2.5 15 2.5C12.6425 2.5 11.465 2.5 10.7325 3.2325C10 3.965 10 5.1425 10 7.5M2.5 17.5C2.5 12.7863 2.5 10.4287 3.965 8.965C5.42875 7.5 7.78625 7.5 12.5 7.5H17.5C22.2137 7.5 24.5712 7.5 26.035 8.965C27.5 10.4287 27.5 12.7863 27.5 17.5C27.5 22.2137 27.5 24.5712 26.035 26.035C24.5712 27.5 22.2137 27.5 17.5 27.5H12.5C7.78625 27.5 5.42875 27.5 3.965 26.035C2.5 24.5712 2.5 22.2137 2.5 17.5Z" stroke="black" stroke-width="1.875"/>
  <path d="M15 21.6663C16.3813 21.6663 17.5 20.7337 17.5 19.5837C17.5 18.4337 16.3813 17.5 15 17.5C13.6187 17.5 12.5 16.5675 12.5 15.4163C12.5 14.2663 13.6187 13.3337 15 13.3337M15 21.6663C13.6187 21.6663 12.5 20.7337 12.5 19.5837M15 21.6663V22.5M15 13.3337V12.5M15 13.3337C16.3813 13.3337 17.5 14.2663 17.5 15.4163" stroke="black" stroke-width="1.875" stroke-linecap="round"/>
</svg>
