<svg width="26" height="26" viewBox="0 0 26 26" fill="none" xmlns="http://www.w3.org/2000/svg">
<path d="M17.8 5.8C17.8 3.5368 17.8 2.4064 17.0968 1.7032C16.3936 1 15.2632 1 13 1C10.7368 1 9.6064 1 8.9032 1.7032C8.2 2.4064 8.2 3.5368 8.2 5.8M1 15.4C1 10.8748 1 8.6116 2.4064 7.2064C3.8116 5.8 6.0748 5.8 10.6 5.8H15.4C19.9252 5.8 22.1884 5.8 23.5936 7.2064C25 8.6116 25 10.8748 25 15.4C25 19.9252 25 22.1884 23.5936 23.5936C22.1884 25 19.9252 25 15.4 25H10.6C6.0748 25 3.8116 25 2.4064 23.5936C1 22.1884 1 19.9252 1 15.4Z" stroke="#1F78B4" stroke-width="1.875"/>
<path d="M13.0001 19.3996C14.3261 19.3996 15.4001 18.5044 15.4001 17.4004C15.4001 16.2964 14.3261 15.4 13.0001 15.4C11.6741 15.4 10.6001 14.5048 10.6001 13.3996C10.6001 12.2956 11.6741 11.4004 13.0001 11.4004M13.0001 19.3996C11.6741 19.3996 10.6001 18.5044 10.6001 17.4004M13.0001 19.3996V20.2M13.0001 11.4004V10.6M13.0001 11.4004C14.3261 11.4004 15.4001 12.2956 15.4001 13.3996" stroke="#1F78B4" stroke-width="1.875" stroke-linecap="round"/>
</svg>