<svg width="100" height="100" viewBox="0 0 100 100" fill="none" xmlns="http://www.w3.org/2000/svg">
<path d="M50 4.16675L12.5 20.8334V45.8334C12.5 68.9584 28.5 90.5834 50 95.8334C71.5 90.5834 87.5 68.9584 87.5 45.8334V20.8334L50 4.16675ZM50 20.4167C52.4723 20.4167 54.889 21.1499 56.9446 22.5234C59.0002 23.8969 60.6024 25.8491 61.5485 28.1332C62.4946 30.4173 62.7421 32.9306 62.2598 35.3554C61.7775 37.7801 60.587 40.0074 58.8388 41.7556C57.0907 43.5037 54.8634 44.6942 52.4386 45.1766C50.0139 45.6589 47.5005 45.4113 45.2165 44.4652C42.9324 43.5191 40.9801 41.917 39.6066 39.8614C38.2331 37.8058 37.5 35.389 37.5 32.9167C37.5 29.6015 38.817 26.4221 41.1612 24.0779C43.5054 21.7337 46.6848 20.4167 50 20.4167ZM50 53.3334C58.3333 53.3334 75 57.8751 75 66.1667C72.2635 70.2922 68.5485 73.6764 64.1864 76.0174C59.8243 78.3585 54.9506 79.5836 50 79.5836C45.0494 79.5836 40.1757 78.3585 35.8136 76.0174C31.4515 73.6764 27.7365 70.2922 25 66.1667C25 57.8751 41.6667 53.3334 50 53.3334Z" fill="#83BA9B"/>
</svg>
