<svg width="23" height="29" viewBox="0 0 23 29" fill="none" xmlns="http://www.w3.org/2000/svg">
<path d="M17.8125 13.0371H4.6875C3.65197 13.0371 2.8125 14.0984 2.8125 15.4075V23.7038C2.8125 25.0129 3.65197 26.0741 4.6875 26.0741H17.8125C18.848 26.0741 19.6875 25.0129 19.6875 23.7038V15.4075C19.6875 14.0984 18.848 13.0371 17.8125 13.0371Z" stroke="#83BA9B" stroke-linecap="round" stroke-linejoin="round"/>
<path d="M6.5625 13.037V8.29629C6.5625 6.72463 7.05636 5.21735 7.93544 4.10602C8.81451 2.9947 10.0068 2.37036 11.25 2.37036C12.4932 2.37036 13.6855 2.9947 14.5646 4.10602C15.4436 5.21735 15.9375 6.72463 15.9375 8.29629V13.037" stroke="#83BA9B" stroke-linecap="round" stroke-linejoin="round"/>
</svg>
