<svg width="100" height="100" viewBox="0 0 100 100" fill="none" xmlns="http://www.w3.org/2000/svg">
<path d="M62.5001 16.6667C58.0798 16.6667 53.8406 18.4227 50.715 21.5483C47.5894 24.6739 45.8334 28.9131 45.8334 33.3334C45.8334 37.7537 47.5894 41.9929 50.715 45.1185C53.8406 48.2441 58.0798 50.0001 62.5001 50.0001C66.9204 50.0001 71.1596 48.2441 74.2852 45.1185C77.4108 41.9929 79.1667 37.7537 79.1667 33.3334C79.1667 28.9131 77.4108 24.6739 74.2852 21.5483C71.1596 18.4227 66.9204 16.6667 62.5001 16.6667ZM62.5001 24.5834C63.6491 24.5834 64.787 24.8097 65.8486 25.2495C66.9102 25.6892 67.8748 26.3337 68.6873 27.1462C69.4998 27.9587 70.1443 28.9233 70.584 29.9849C71.0238 31.0465 71.2501 32.1843 71.2501 33.3334C71.2501 34.4825 71.0238 35.6203 70.584 36.6819C70.1443 37.7435 69.4998 38.7081 68.6873 39.5206C67.8748 40.3331 66.9102 40.9776 65.8486 41.4174C64.787 41.8571 63.6491 42.0834 62.5001 42.0834C61.351 42.0834 60.2132 41.8571 59.1516 41.4174C58.09 40.9776 57.1254 40.3331 56.3129 39.5206C55.5004 38.7081 54.8559 37.7435 54.4161 36.6819C53.9764 35.6203 53.7501 34.4825 53.7501 33.3334C53.7501 31.0128 54.672 28.7872 56.3129 27.1462C57.9538 25.5053 60.1794 24.5834 62.5001 24.5834ZM16.6667 29.1667V41.6667H4.16675V50.0001H16.6667V62.5001H25.0001V50.0001H37.5001V41.6667H25.0001V29.1667H16.6667ZM62.5001 54.1667C51.3751 54.1667 29.1667 59.7084 29.1667 70.8334V83.3334H95.8334V70.8334C95.8334 59.7084 73.6251 54.1667 62.5001 54.1667ZM62.5001 62.0834C74.8751 62.0834 87.9167 68.1667 87.9167 70.8334V75.4167H37.0834V70.8334C37.0834 68.1667 50.0001 62.0834 62.5001 62.0834Z" fill="#83BA9B"/>
</svg>
